<?xml version="1.0" standalone="no"?>
<!DOCTYPE svg PUBLIC "-//W3C//DTD SVG 20010904//EN"
 "http://www.w3.org/TR/2001/REC-SVG-20010904/DTD/svg10.dtd">
<svg version="1.0" xmlns="http://www.w3.org/2000/svg"
 width="120.000000pt" height="120.000000pt" viewBox="0 0 120.000000 120.000000"
 preserveAspectRatio="xMidYMid meet">
<metadata>
Created by potrace 1.14, written by Peter Selinger 2001-2017
</metadata>
<g transform="translate(0.000000,120.000000) scale(0.100000,-0.100000)"
fill="#000000" stroke="none">
<path d="M420 1180 c0 -4 12 -12 26 -19 33 -15 29 -45 -6 -44 -14 0 -38 6 -55
14 -45 19 -124 16 -163 -6 -39 -23 -72 -87 -72 -138 0 -28 -6 -40 -25 -53 -26
-17 -26 -37 0 -27 11 4 15 -2 15 -20 0 -24 -53 -96 -103 -139 -25 -22 -8 -23
40 -3 19 8 37 15 39 15 1 0 -9 -26 -24 -57 -23 -51 -27 -72 -29 -177 -2 -115
-2 -119 15 -95 9 13 22 35 28 49 9 21 11 11 11 -56 0 -73 4 -88 38 -160 21
-43 45 -90 54 -102 l15 -24 19 38 c17 32 21 36 31 22 60 -86 100 -138 105
-138 3 0 15 16 26 36 l21 35 24 -22 c14 -12 51 -39 82 -59 l58 -38 67 35 c37
20 76 45 85 56 18 20 18 20 18 -6 0 -15 3 -27 6 -27 18 0 89 69 102 99 13 33
15 34 22 15 7 -19 66 -64 84 -64 3 0 6 12 6 26 0 14 13 58 29 97 39 95 43 110
43 163 0 25 4 44 10 44 6 0 9 -3 5 -6 -7 -7 33 -54 47 -54 8 0 12 41 13 118 1
96 -3 134 -21 199 -12 43 -26 84 -30 91 -4 7 3 14 19 18 14 3 25 9 25 12 0 3
-17 26 -37 51 -21 25 -36 50 -35 56 2 5 4 32 3 58 0 121 -128 191 -241 132
-17 -9 -34 -14 -38 -11 -7 8 31 36 40 30 5 -3 8 -1 8 5 0 5 10 8 22 6 15 -3
18 -1 11 6 -20 20 -131 12 -206 -14 -35 -13 -42 -12 -87 11 -44 22 -140 37
-140 22z"/>
</g>
</svg>
